<svg id="svg" version="1.1" xmlns="http://www.w3.org/2000/svg" xmlns:xlink="http://www.w3.org/1999/xlink" width="400" height="152.38095238095238" viewBox="0, 0, 400,152.38095238095238"><g id="svgg"><path id="path0" d="M37.167 18.783 C 36.754 18.815,35.742 18.988,34.917 19.167 C 34.092 19.346,32.500 19.643,31.380 19.827 C 29.786 20.088,28.860 20.358,27.130 21.067 C 25.912 21.566,24.692 22.028,24.417 22.094 C 23.778 22.248,22.571 22.858,21.878 23.377 L 21.339 23.781 21.711 24.119 C 22.460 24.800,23.452 25.318,24.964 25.818 C 25.814 26.100,27.052 26.628,27.714 26.991 C 28.375 27.354,29.432 27.845,30.062 28.081 C 31.620 28.668,32.016 28.887,32.908 29.659 C 33.330 30.024,34.465 30.785,35.430 31.349 C 36.714 32.099,37.371 32.606,37.884 33.241 C 38.268 33.718,38.955 34.402,39.409 34.762 C 40.555 35.670,40.931 36.089,41.514 37.108 C 41.792 37.593,42.538 38.646,43.173 39.448 C 43.852 40.306,44.507 41.353,44.765 41.994 C 45.006 42.593,45.675 44.058,46.252 45.250 C 47.066 46.933,47.474 48.068,48.076 50.333 C 48.537 52.070,49.052 53.606,49.347 54.131 C 50.075 55.424,50.414 56.366,51.264 59.458 C 51.684 60.987,52.280 62.729,52.588 63.328 C 53.305 64.723,53.656 65.699,54.496 68.634 C 54.898 70.036,55.486 71.615,55.924 72.467 C 56.333 73.264,56.858 74.629,57.090 75.500 C 58.165 79.529,58.416 80.316,58.931 81.260 C 59.588 82.466,60.127 84.031,60.921 87.029 C 61.244 88.251,61.803 89.850,62.162 90.583 C 62.521 91.317,62.940 92.367,63.092 92.917 C 63.626 94.844,64.356 96.773,64.729 97.240 L 65.105 97.712 65.971 96.943 C 66.447 96.520,67.437 95.874,68.171 95.508 C 70.025 94.582,71.298 93.683,72.101 92.729 C 72.952 91.717,75.651 89.648,76.995 88.976 C 77.555 88.696,78.201 88.214,78.446 87.893 L 78.888 87.314 78.596 86.365 C 78.436 85.843,77.899 84.592,77.403 83.583 C 76.762 82.280,76.312 81.027,75.846 79.250 C 75.081 76.332,74.884 75.755,74.186 74.373 C 73.902 73.808,73.251 71.825,72.741 69.965 C 72.155 67.831,71.580 66.122,71.180 65.333 C 70.427 63.845,70.196 63.155,69.422 60.083 C 69.016 58.470,68.581 57.236,68.013 56.083 C 67.457 54.954,66.945 53.513,66.427 51.614 C 65.566 48.462,65.426 48.080,64.703 46.944 C 64.421 46.501,63.916 45.264,63.582 44.194 C 62.483 40.684,62.137 39.762,61.574 38.833 C 61.268 38.329,60.646 36.782,60.192 35.395 C 59.310 32.700,59.129 32.272,58.655 31.749 C 58.489 31.566,57.767 30.354,57.051 29.056 C 55.960 27.078,55.609 26.587,54.874 26.010 C 54.392 25.633,53.717 24.957,53.374 24.510 C 52.753 23.700,52.453 23.509,47.038 20.467 C 46.235 20.015,44.592 19.589,41.343 18.988 C 39.698 18.684,38.928 18.647,37.167 18.783 M136.500 18.925 C 132.443 19.733,131.140 20.138,130.083 20.919 C 129.808 21.122,128.646 21.756,127.500 22.327 C 125.644 23.252,125.294 23.499,124.289 24.588 C 123.669 25.259,122.905 25.968,122.592 26.161 C 122.156 26.431,121.764 27.004,120.926 28.597 C 120.323 29.743,119.575 31.051,119.263 31.504 C 118.642 32.406,118.484 32.798,117.555 35.738 C 117.206 36.842,116.633 38.212,116.268 38.819 C 115.839 39.529,115.241 41.041,114.560 43.137 C 113.983 44.911,113.281 46.736,113.000 47.192 C 112.445 48.094,111.924 49.565,111.150 52.417 C 110.876 53.425,110.282 55.038,109.830 56.000 C 109.261 57.211,108.775 58.649,108.254 60.667 C 107.732 62.689,107.271 64.053,106.752 65.113 C 106.037 66.573,105.851 67.142,104.678 71.460 C 104.398 72.492,103.879 73.917,103.524 74.627 C 102.749 76.179,102.518 76.871,101.746 79.959 C 101.367 81.473,100.884 82.893,100.413 83.876 C 99.869 85.013,99.440 86.355,98.777 89.000 C 98.135 91.564,97.662 93.057,97.115 94.250 C 96.601 95.372,96.127 96.828,95.668 98.704 C 95.037 101.277,94.300 103.429,93.769 104.248 C 93.440 104.755,93.089 105.929,92.190 109.527 C 91.243 113.316,90.813 114.362,89.778 115.398 C 88.827 116.348,87.406 117.101,87.076 116.828 C 86.773 116.576,85.325 114.308,84.785 113.239 C 84.520 112.713,84.111 112.230,83.702 111.960 C 83.341 111.721,82.754 111.169,82.398 110.733 C 82.041 110.297,81.422 109.636,81.022 109.262 C 80.341 108.627,78.411 106.695,77.954 106.191 C 77.842 106.068,77.112 105.596,76.333 105.144 C 74.689 104.189,74.485 104.066,73.586 103.481 C 72.413 102.718,71.626 102.390,69.871 101.931 C 67.964 101.432,67.891 101.448,66.848 102.565 L 66.446 102.995 66.832 104.706 C 67.352 107.014,67.731 108.132,68.599 109.913 C 69.099 110.938,69.571 112.344,70.083 114.333 C 70.949 117.693,70.969 117.752,71.943 119.750 C 72.432 120.753,72.890 122.107,73.325 123.833 C 74.160 127.151,74.327 127.598,75.412 129.417 C 75.908 130.248,76.389 131.124,76.480 131.364 C 76.571 131.604,76.901 131.995,77.214 132.234 L 77.781 132.667 88.682 132.666 C 100.762 132.666,100.371 132.700,101.054 131.583 C 102.652 128.968,103.498 127.335,103.794 126.296 C 103.983 125.629,104.410 124.108,104.741 122.917 C 105.073 121.725,105.638 120.150,105.997 119.417 C 106.356 118.683,106.883 117.221,107.169 116.167 C 108.350 111.803,108.542 111.206,109.065 110.250 C 109.705 109.083,110.189 107.675,110.673 105.583 C 111.225 103.192,111.824 101.315,112.322 100.417 C 112.920 99.337,113.353 98.062,113.991 95.496 C 114.666 92.784,114.932 91.979,115.597 90.648 C 115.900 90.042,116.350 88.842,116.597 87.982 C 117.736 84.015,118.243 82.517,118.846 81.346 C 119.275 80.511,119.726 79.179,120.177 77.417 C 120.676 75.466,121.098 74.258,121.749 72.917 C 122.722 70.913,122.890 70.426,123.682 67.333 C 124.263 65.063,124.638 64.064,125.249 63.167 C 125.597 62.655,126.210 60.760,127.109 57.417 C 127.256 56.867,127.738 55.667,128.178 54.750 C 128.676 53.712,129.260 52.061,129.724 50.374 C 130.405 47.900,130.739 47.056,131.920 44.833 C 132.140 44.421,132.513 43.511,132.750 42.812 C 133.238 41.371,134.093 39.859,134.906 39.000 C 135.210 38.679,135.878 37.842,136.392 37.139 C 136.905 36.436,137.772 35.511,138.318 35.082 C 138.864 34.653,139.685 33.871,140.144 33.344 C 140.623 32.793,141.789 31.828,142.893 31.068 C 143.947 30.343,145.149 29.514,145.565 29.226 C 145.980 28.937,146.866 28.497,147.535 28.247 C 148.203 27.997,149.368 27.461,150.123 27.055 C 150.879 26.650,152.187 26.061,153.031 25.747 C 154.632 25.152,156.387 24.084,156.286 23.767 C 156.186 23.453,154.509 22.532,153.366 22.163 C 152.767 21.969,151.377 21.432,150.277 20.970 C 148.614 20.270,147.815 20.047,145.514 19.642 C 143.994 19.374,142.488 19.084,142.169 18.997 C 141.075 18.699,137.839 18.658,136.500 18.925 " stroke="none" fill="#f33535" fill-rule="evenodd"></path><path id="path1" d="M347.583 18.330 C 340.250 18.378,334.171 18.468,334.075 18.531 C 333.686 18.785,328.080 19.500,326.464 19.503 C 324.526 19.505,323.062 19.816,320.736 20.719 C 319.919 21.036,318.237 21.619,317.000 22.015 C 315.126 22.614,314.499 22.905,313.250 23.755 C 312.425 24.317,311.075 25.126,310.250 25.552 C 309.301 26.043,308.447 26.638,307.925 27.172 C 307.471 27.636,306.751 28.206,306.325 28.438 C 305.365 28.960,302.292 32.211,301.461 33.583 C 301.127 34.133,300.504 34.921,300.075 35.333 C 299.498 35.888,299.060 36.582,298.390 38.000 C 297.892 39.054,297.177 40.425,296.803 41.047 C 296.312 41.863,295.900 42.944,295.326 44.926 C 294.888 46.438,294.267 48.329,293.947 49.129 C 292.616 52.446,291.982 56.203,291.831 61.667 C 291.717 65.740,291.715 65.757,291.025 68.467 L 290.333 71.184 290.333 76.067 L 290.333 80.950 291.025 83.600 L 291.717 86.250 291.835 90.667 C 291.992 96.502,292.593 99.969,294.001 103.168 C 294.348 103.958,295.016 105.799,295.484 107.260 C 296.054 109.038,296.504 110.137,296.845 110.583 C 297.125 110.950,297.766 112.084,298.270 113.103 C 298.773 114.123,299.552 115.398,300.000 115.937 C 300.448 116.476,301.229 117.517,301.736 118.250 C 302.274 119.028,303.042 119.878,303.578 120.290 C 304.084 120.679,304.772 121.377,305.106 121.842 C 305.463 122.340,306.200 123.018,306.898 123.492 C 307.550 123.934,308.524 124.683,309.062 125.157 C 309.708 125.726,310.743 126.356,312.104 127.010 C 313.239 127.555,314.526 128.258,314.963 128.573 C 315.899 129.245,317.496 129.807,320.442 130.502 C 321.620 130.780,323.221 131.260,324.000 131.569 C 325.758 132.265,327.228 132.499,329.865 132.502 C 330.994 132.503,333.192 132.612,334.750 132.744 C 336.963 132.932,341.494 132.990,355.454 133.011 L 373.325 133.037 374.051 132.611 C 375.212 131.930,375.220 131.909,374.993 130.050 C 374.765 128.179,374.381 127.321,373.141 125.903 C 372.704 125.404,371.850 124.284,371.244 123.414 C 370.532 122.393,369.864 121.642,369.362 121.299 C 368.934 121.006,368.021 120.322,367.333 119.778 C 363.957 117.106,361.106 116.666,347.185 116.669 C 333.547 116.673,331.879 116.528,328.000 115.002 C 327.587 114.840,326.837 114.576,326.333 114.414 C 325.150 114.035,323.960 113.437,323.656 113.069 C 323.524 112.910,322.592 112.238,321.583 111.577 C 319.689 110.334,318.314 109.040,316.566 106.856 C 314.959 104.848,314.835 104.656,313.992 102.875 C 313.547 101.936,312.968 100.848,312.705 100.459 C 311.949 99.337,311.522 98.156,310.922 95.530 C 310.614 94.184,310.158 92.558,309.908 91.917 C 309.542 90.977,309.432 90.360,309.346 88.750 C 309.287 87.650,309.186 86.665,309.122 86.561 C 307.790 84.417,307.539 70.272,308.767 66.583 C 308.921 66.120,309.094 64.863,309.157 63.750 C 309.249 62.113,309.394 61.326,309.955 59.417 C 310.331 58.133,310.804 56.371,311.006 55.500 C 311.483 53.437,311.894 52.359,312.585 51.354 C 312.894 50.904,313.592 49.600,314.134 48.457 C 314.973 46.692,315.331 46.147,316.519 44.834 C 320.527 40.404,322.618 38.727,325.583 37.568 C 326.225 37.317,327.138 36.858,327.613 36.548 C 328.327 36.081,328.943 35.885,331.196 35.410 C 335.507 34.499,335.493 34.500,351.629 34.500 C 364.233 34.500,366.756 34.462,367.133 34.266 C 368.689 33.457,368.994 31.884,368.854 25.403 L 368.750 20.557 368.287 19.950 C 367.177 18.496,365.890 18.119,362.333 18.208 C 361.554 18.227,354.917 18.282,347.583 18.330 M361.897 62.514 C 360.201 62.798,359.489 63.247,358.877 64.417 C 358.554 65.033,358.510 107.000,358.830 108.667 C 359.109 110.116,359.646 110.535,362.218 111.311 C 363.620 111.734,364.642 112.154,365.214 112.543 C 365.692 112.867,366.421 113.300,366.833 113.506 C 368.209 114.190,369.069 114.878,370.926 116.780 C 372.575 118.469,372.829 118.666,373.343 118.663 C 374.215 118.657,375.232 118.120,375.650 117.444 L 376.017 116.849 376.022 90.800 L 376.027 64.750 375.318 63.942 C 374.929 63.498,374.311 62.936,373.946 62.695 L 373.283 62.255 368.376 62.253 C 364.664 62.251,363.087 62.314,361.897 62.514 " stroke="none" fill="#3965e9" fill-rule="evenodd"></path><path id="path2" d="M0.000 76.167 L 0.000 152.333 200.000 152.333 L 400.000 152.333 400.000 76.167 L 400.000 0.000 200.000 0.000 L 0.000 0.000 0.000 76.167 M251.167 16.275 C 270.000 16.322,270.966 16.364,271.901 17.164 C 272.185 17.407,272.679 17.767,273.000 17.964 C 275.702 19.624,276.380 21.540,276.300 27.291 C 276.226 32.643,275.593 34.161,272.931 35.366 L 272.083 35.750 257.333 35.798 C 242.495 35.847,240.357 35.783,239.348 35.255 C 238.194 34.652,237.519 33.285,236.917 30.337 C 236.718 29.359,236.422 28.563,235.956 27.753 C 234.636 25.458,234.527 25.241,234.320 24.500 C 234.025 23.446,233.621 23.054,232.695 22.926 C 230.946 22.684,230.777 22.466,230.500 20.083 C 230.404 19.258,230.244 18.378,230.144 18.128 C 229.905 17.529,230.033 17.246,230.700 16.895 C 231.547 16.449,233.212 16.004,233.583 16.124 C 233.767 16.183,241.679 16.251,251.167 16.275 M218.917 16.924 C 219.729 17.337,220.867 17.692,222.667 18.093 C 224.196 18.434,225.658 18.871,226.250 19.162 C 226.800 19.434,227.453 19.703,227.701 19.760 C 228.753 20.006,229.996 21.893,229.999 23.250 C 230.000 23.639,230.176 23.902,230.796 24.435 C 231.886 25.374,232.249 26.576,232.750 30.916 C 233.067 33.664,233.133 128.351,232.819 130.608 C 232.344 134.027,231.503 134.347,222.833 134.409 C 216.049 134.457,214.593 134.183,213.195 132.590 C 212.661 131.982,212.597 131.810,212.420 130.510 C 212.365 130.103,212.324 109.596,212.330 84.940 C 212.341 36.734,212.342 36.813,211.699 36.217 L 211.285 35.833 195.832 35.833 C 179.522 35.833,179.023 35.812,178.037 35.059 C 176.790 34.108,176.757 33.892,176.754 26.583 C 176.749 18.974,176.740 19.025,178.495 17.505 C 180.000 16.201,179.245 16.244,199.887 16.291 L 217.750 16.332 218.917 16.924 M41.167 16.912 C 41.762 17.168,43.643 17.733,45.344 18.168 C 48.807 19.054,49.289 19.253,50.271 20.199 C 50.649 20.563,51.661 21.219,52.521 21.656 C 53.901 22.358,54.157 22.560,54.712 23.390 C 55.095 23.963,55.583 24.454,55.962 24.647 C 56.798 25.074,57.026 25.361,57.746 26.889 C 58.085 27.607,58.720 28.590,59.157 29.073 C 60.049 30.058,60.688 31.303,61.002 32.667 C 61.304 33.983,61.787 35.147,62.266 35.717 C 63.069 36.670,63.573 38.044,64.360 41.417 C 64.729 43.002,64.872 43.348,65.432 44.018 C 66.301 45.059,66.648 45.842,67.076 47.727 C 67.713 50.539,68.165 51.851,68.767 52.640 C 69.388 53.453,69.977 55.135,70.410 57.333 C 70.911 59.874,71.343 61.184,71.999 62.150 C 72.714 63.203,73.131 64.434,73.661 67.052 C 74.122 69.332,74.484 70.380,75.150 71.366 C 75.818 72.356,76.222 73.530,76.674 75.794 C 77.236 78.611,77.645 79.831,78.378 80.877 C 79.331 82.237,80.503 86.459,80.271 87.696 C 80.105 88.580,79.266 89.775,78.550 90.147 C 78.202 90.328,77.701 90.752,77.437 91.089 C 76.979 91.675,75.549 92.495,74.979 92.498 C 74.666 92.500,73.500 93.519,73.500 93.791 C 73.500 94.251,72.518 95.051,71.075 95.767 C 69.188 96.704,69.250 96.637,68.933 98.089 C 68.794 98.727,68.633 99.411,68.575 99.609 C 68.461 99.997,68.952 100.195,71.500 100.784 C 73.889 101.338,74.720 101.686,75.500 102.462 C 76.375 103.331,77.266 103.959,78.380 104.489 C 79.124 104.843,80.000 105.727,80.000 106.123 C 80.000 106.340,81.112 107.333,81.355 107.333 C 81.751 107.333,82.533 108.076,82.906 108.806 C 83.334 109.646,83.914 110.245,84.833 110.797 C 85.452 111.169,85.553 111.302,86.354 112.799 C 87.041 114.083,87.210 114.244,87.631 114.019 C 88.120 113.757,88.893 112.686,89.148 111.917 C 89.269 111.550,89.652 110.800,89.998 110.250 C 90.633 109.241,90.782 108.737,91.733 104.397 C 92.152 102.481,92.707 101.149,93.314 100.600 C 93.738 100.217,93.838 99.872,94.580 96.250 C 95.338 92.543,95.544 91.890,96.318 90.725 C 97.061 89.606,97.517 88.161,97.914 85.667 C 98.302 83.222,98.581 82.352,99.361 81.144 C 100.129 79.956,100.309 79.421,100.919 76.526 C 101.522 73.663,101.866 72.647,102.637 71.452 C 103.363 70.327,103.667 69.442,104.170 66.980 C 104.664 64.562,105.115 63.260,105.744 62.436 C 106.392 61.587,106.803 60.376,107.333 57.750 C 107.860 55.142,108.249 53.993,108.949 52.976 C 109.633 51.981,110.107 50.624,110.722 47.893 C 111.138 46.046,111.732 44.597,112.248 44.168 C 112.685 43.806,112.923 43.215,113.495 41.083 C 114.319 38.010,114.485 37.555,115.094 36.706 C 115.942 35.521,116.319 34.645,116.778 32.786 C 117.284 30.736,117.641 30.000,118.656 28.917 C 119.085 28.458,119.706 27.515,120.035 26.821 C 120.625 25.576,121.118 25.026,122.151 24.463 C 122.440 24.306,122.806 23.940,122.963 23.651 C 123.522 22.625,123.999 22.215,125.446 21.514 C 126.251 21.125,127.234 20.506,127.632 20.140 C 128.535 19.307,129.053 19.089,131.750 18.405 C 132.942 18.103,134.329 17.705,134.833 17.522 C 138.208 16.293,137.967 16.346,139.749 16.449 C 141.194 16.533,141.561 16.619,142.500 17.093 C 143.589 17.644,144.950 17.970,149.074 18.668 C 151.154 19.021,152.615 19.564,153.337 20.254 C 153.581 20.487,154.325 20.820,155.113 21.048 C 157.742 21.810,159.470 23.266,158.945 24.277 C 158.509 25.114,157.232 26.050,155.701 26.653 C 155.263 26.826,154.458 27.239,153.911 27.570 C 153.364 27.902,152.504 28.294,152.000 28.441 C 148.607 29.428,147.254 29.991,146.714 30.641 C 146.396 31.024,145.818 31.442,145.297 31.666 C 144.142 32.161,143.217 32.807,142.131 33.877 C 141.644 34.357,140.505 35.462,139.601 36.333 C 137.870 38.001,136.630 39.487,136.424 40.141 C 136.356 40.357,135.901 40.929,135.413 41.413 C 134.791 42.031,134.466 42.511,134.329 43.022 C 133.308 46.803,132.938 47.753,132.165 48.583 C 131.677 49.107,131.145 50.811,130.578 53.667 C 130.213 55.505,129.612 57.092,128.985 57.876 C 128.506 58.473,127.730 60.813,127.423 62.583 C 127.228 63.713,126.524 65.638,126.042 66.360 C 125.235 67.568,125.143 67.819,124.473 70.643 C 123.791 73.519,123.255 74.953,122.597 75.667 C 122.101 76.205,121.795 77.160,121.093 80.359 C 120.544 82.863,119.868 84.654,119.290 85.133 C 118.962 85.406,118.436 87.146,117.819 90.000 C 117.298 92.410,116.973 93.290,116.243 94.265 C 115.831 94.815,115.458 96.049,114.736 99.250 C 114.185 101.694,113.804 102.760,113.170 103.635 C 112.636 104.373,112.222 105.671,111.673 108.333 C 111.160 110.819,110.891 111.594,110.081 112.917 C 109.267 114.248,109.187 114.499,108.489 117.917 C 107.962 120.494,107.539 121.662,106.690 122.879 C 106.107 123.717,105.799 124.648,105.330 127.000 C 104.920 129.057,104.382 130.332,103.628 131.035 C 103.328 131.314,102.896 131.887,102.667 132.307 C 102.119 133.313,101.057 133.969,99.649 134.173 C 97.488 134.485,77.847 134.354,77.029 134.022 C 76.122 133.654,75.239 132.957,74.935 132.369 C 74.806 132.120,74.436 131.636,74.113 131.293 C 73.464 130.605,72.948 129.381,72.554 127.591 C 71.851 124.404,71.470 123.105,71.095 122.612 C 70.350 121.633,69.871 120.427,69.428 118.417 C 68.747 115.328,68.344 113.993,67.924 113.432 C 67.238 112.516,66.852 111.569,66.411 109.724 C 65.296 105.052,65.122 104.449,64.725 103.866 C 64.383 103.363,64.325 103.128,64.410 102.583 C 64.572 101.538,65.043 100.167,65.239 100.166 C 65.337 100.166,65.154 100.008,64.833 99.816 C 63.475 99.001,62.955 98.250,62.334 96.206 C 62.132 95.543,61.640 94.425,61.240 93.723 C 60.658 92.702,60.411 91.995,60.002 90.182 C 59.179 86.529,58.869 85.551,58.266 84.707 C 57.448 83.562,57.215 82.908,56.498 79.750 C 55.760 76.494,55.737 76.422,55.227 75.743 C 54.527 74.810,54.027 73.439,53.327 70.527 C 52.779 68.253,52.536 67.526,52.183 67.111 C 51.318 66.092,50.680 64.585,50.407 62.917 C 50.087 60.955,49.287 58.225,48.917 57.833 C 48.271 57.149,47.684 55.790,47.320 54.138 C 46.696 51.301,46.037 49.013,45.767 48.743 C 45.028 48.005,44.150 45.782,43.667 43.430 C 43.489 42.562,43.350 42.332,42.510 41.514 C 41.890 40.911,41.214 39.979,40.587 38.865 C 39.941 37.717,39.394 36.969,38.942 36.615 C 38.570 36.322,37.626 35.453,36.844 34.683 C 35.466 33.325,34.154 32.396,32.723 31.768 C 32.342 31.600,31.647 31.059,31.179 30.565 C 30.710 30.071,30.233 29.667,30.118 29.667 C 29.548 29.667,24.555 27.968,24.006 27.588 C 23.659 27.347,22.973 26.998,22.480 26.812 C 17.648 24.985,17.721 22.705,22.667 20.989 C 23.262 20.782,23.938 20.446,24.167 20.242 C 25.158 19.357,26.087 19.071,30.083 18.416 C 33.515 17.854,34.546 17.585,35.379 17.033 C 36.596 16.226,39.429 16.167,41.167 16.912 M366.632 17.824 C 369.049 18.475,369.483 19.723,369.508 26.083 C 369.532 32.436,369.423 33.229,368.389 34.189 C 367.248 35.250,368.375 35.187,351.200 35.156 L 335.583 35.129 333.000 35.732 C 329.333 36.589,329.220 36.624,327.833 37.324 C 327.146 37.671,326.208 38.079,325.750 38.230 C 322.107 39.428,315.886 45.647,314.392 49.583 C 313.993 50.636,312.992 52.382,312.676 52.577 C 312.044 52.968,310.293 60.886,310.261 63.500 C 310.238 65.276,310.197 65.506,309.694 66.633 C 308.743 68.766,308.500 70.697,308.503 76.074 L 308.505 80.750 309.075 82.917 C 309.388 84.108,309.797 85.595,309.982 86.221 C 310.246 87.113,310.301 87.655,310.235 88.735 C 310.163 89.912,310.213 90.296,310.577 91.383 C 310.990 92.613,311.662 95.601,311.665 96.222 C 311.668 96.745,312.469 98.562,313.326 99.987 C 313.777 100.738,314.274 101.742,314.429 102.218 C 314.837 103.467,315.115 103.957,315.903 104.818 C 316.288 105.239,316.970 106.108,317.419 106.750 C 318.957 108.947,320.445 110.282,322.583 111.383 C 323.042 111.619,323.725 112.098,324.101 112.448 C 324.934 113.222,325.158 113.334,327.167 113.977 C 330.394 115.011,331.812 115.333,333.133 115.333 C 333.839 115.333,335.205 115.483,336.167 115.667 C 337.793 115.976,338.610 116.000,347.750 116.000 L 357.584 116.000 361.000 116.653 C 365.604 117.532,366.465 117.832,367.500 118.916 C 368.172 119.619,369.490 120.620,370.237 120.993 C 370.519 121.135,370.864 121.475,371.002 121.750 C 371.395 122.527,372.209 123.644,373.293 124.890 C 374.534 126.318,375.225 127.693,375.658 129.598 C 375.844 130.415,376.041 131.243,376.095 131.439 C 376.225 131.898,375.308 132.838,374.167 133.417 L 373.344 133.833 355.631 133.828 C 340.810 133.824,337.644 133.782,336.250 133.574 C 335.333 133.438,332.521 133.257,330.000 133.172 C 325.145 133.009,324.798 132.957,322.833 132.079 C 322.146 131.772,321.021 131.399,320.333 131.249 C 317.991 130.739,315.030 129.672,314.283 129.069 C 313.898 128.759,312.608 128.030,311.417 127.449 C 309.730 126.628,309.040 126.187,308.300 125.459 C 307.777 124.944,306.902 124.220,306.355 123.848 C 305.808 123.476,305.192 122.927,304.987 122.628 C 304.414 121.791,303.655 121.018,302.876 120.477 C 302.488 120.207,301.877 119.558,301.520 119.035 C 301.163 118.511,300.423 117.577,299.875 116.959 C 299.218 116.218,298.576 115.223,297.993 114.042 C 297.505 113.057,296.867 111.950,296.574 111.583 C 295.795 110.609,295.576 110.103,294.910 107.739 C 294.313 105.618,293.895 104.601,293.319 103.863 C 292.928 103.362,292.621 102.274,292.090 99.500 C 291.326 95.505,291.167 93.940,291.167 90.398 C 291.167 86.685,291.003 85.579,290.168 83.667 C 289.168 81.372,289.139 81.138,289.201 75.628 L 289.258 70.583 289.731 69.333 C 291.213 65.422,291.147 65.766,291.158 61.917 C 291.167 58.704,291.216 58.129,291.758 54.917 C 292.554 50.197,292.724 49.527,293.499 48.035 C 293.892 47.277,294.471 45.676,294.908 44.134 C 295.663 41.469,295.925 40.803,296.569 39.917 C 296.769 39.642,297.304 38.606,297.758 37.616 C 298.313 36.406,298.795 35.614,299.228 35.199 C 300.515 33.971,300.693 33.748,301.273 32.644 C 301.598 32.027,302.212 31.193,302.640 30.790 C 303.067 30.388,303.686 29.726,304.016 29.321 C 304.377 28.876,305.079 28.329,305.786 27.942 C 306.460 27.573,307.214 26.993,307.565 26.573 C 307.979 26.077,308.641 25.604,309.645 25.085 C 310.455 24.667,311.523 24.020,312.017 23.648 C 313.232 22.735,314.086 22.321,316.250 21.594 C 317.258 21.255,318.383 20.808,318.750 20.600 C 320.575 19.564,323.966 18.834,326.967 18.832 C 328.772 18.831,332.120 18.308,334.250 17.695 C 334.973 17.487,365.837 17.610,366.632 17.824 M373.667 61.574 C 374.958 62.336,375.726 62.978,376.240 63.725 L 376.847 64.606 376.843 90.845 C 376.838 115.944,376.790 118.777,376.361 119.206 C 376.213 119.354,373.885 119.817,373.234 119.828 C 373.004 119.831,372.231 119.171,370.984 117.907 C 369.939 116.848,368.858 115.758,368.583 115.486 C 367.937 114.846,366.754 114.097,365.943 113.813 C 365.590 113.689,365.014 113.342,364.662 113.041 C 363.941 112.424,363.314 112.173,361.476 111.767 C 359.162 111.255,358.148 110.228,357.922 108.167 C 357.651 105.687,357.824 64.836,358.108 64.274 C 359.408 61.701,360.426 61.414,368.231 61.421 C 371.083 61.424,373.529 61.493,373.667 61.574 M78.491 95.329 C 79.377 95.781,80.031 96.631,79.810 97.044 C 79.585 97.464,78.190 98.333,77.741 98.333 C 77.368 98.333,75.833 97.102,75.833 96.803 C 75.833 96.453,76.550 95.649,77.138 95.338 C 77.891 94.940,77.732 94.941,78.491 95.329 " stroke="none" fill="#fbfbfb" fill-rule="evenodd"></path><path id="path3" d="M180.899 19.115 C 178.429 19.572,178.527 19.305,178.495 25.669 C 178.468 30.875,178.656 32.893,179.220 33.458 C 179.705 33.944,182.181 34.016,196.767 33.973 L 211.450 33.930 212.517 34.464 C 213.242 34.827,213.759 35.233,214.133 35.734 L 214.682 36.469 214.673 81.026 C 214.668 105.533,214.616 126.272,214.558 127.113 C 214.400 129.397,215.240 131.521,216.572 132.206 C 217.909 132.894,229.349 132.562,230.275 131.809 C 230.381 131.723,230.625 131.068,230.818 130.353 L 231.169 129.052 231.167 81.181 C 231.165 26.155,231.285 30.090,229.506 26.750 C 229.066 25.925,228.578 24.854,228.421 24.370 C 228.058 23.248,227.501 22.591,226.472 22.069 C 226.023 21.841,225.376 21.406,225.036 21.102 C 224.119 20.282,223.992 20.238,220.656 19.600 L 217.583 19.013 199.779 18.965 C 186.523 18.929,181.700 18.967,180.899 19.115 M235.293 19.190 C 233.796 19.600,232.753 20.497,233.367 20.846 C 234.179 21.309,235.114 22.175,235.602 22.917 C 235.904 23.375,236.429 24.087,236.769 24.500 C 237.682 25.606,238.124 26.716,238.410 28.621 C 238.882 31.768,239.676 33.036,241.559 33.653 C 242.554 33.979,242.996 33.989,257.011 33.984 C 273.847 33.979,272.045 34.218,272.995 31.866 L 273.596 30.379 273.558 26.981 C 273.484 20.436,272.964 19.298,269.952 19.092 C 266.029 18.823,236.325 18.907,235.293 19.190 " stroke="none" fill="#57ba1c" fill-rule="evenodd"></path><path id="path4" d="M232.250 16.311 C 230.293 16.887,229.814 17.301,230.144 18.128 C 230.244 18.378,230.404 19.258,230.500 20.083 C 230.777 22.466,230.946 22.684,232.695 22.926 C 233.621 23.054,234.025 23.446,234.320 24.500 C 234.527 25.241,234.636 25.458,235.956 27.753 C 236.422 28.563,236.718 29.359,236.917 30.337 C 237.519 33.285,238.194 34.652,239.348 35.255 C 240.357 35.783,242.495 35.847,257.333 35.798 L 272.083 35.750 272.931 35.366 C 275.593 34.161,276.226 32.643,276.300 27.291 C 276.380 21.540,275.702 19.624,273.000 17.964 C 272.679 17.767,272.185 17.407,271.901 17.164 C 270.966 16.364,270.000 16.322,251.167 16.275 C 241.679 16.251,233.767 16.183,233.583 16.124 C 233.400 16.064,232.800 16.149,232.250 16.311 M180.735 16.465 C 179.132 16.733,177.807 17.744,177.146 19.206 C 176.560 20.504,176.529 32.585,177.109 33.851 C 178.043 35.893,177.479 35.833,195.832 35.833 L 211.285 35.833 211.699 36.217 C 212.342 36.813,212.341 36.734,212.330 84.940 C 212.324 109.596,212.365 130.103,212.420 130.510 C 212.597 131.810,212.661 131.982,213.195 132.590 C 214.593 134.183,216.049 134.457,222.833 134.409 C 231.503 134.347,232.344 134.027,232.819 130.608 C 233.133 128.351,233.067 33.664,232.750 30.916 C 232.249 26.576,231.886 25.374,230.796 24.435 C 230.176 23.902,230.000 23.639,229.999 23.250 C 229.996 21.893,228.753 20.006,227.701 19.760 C 227.453 19.703,226.800 19.434,226.250 19.162 C 225.658 18.871,224.196 18.434,222.667 18.093 C 220.867 17.692,219.729 17.337,218.917 16.924 L 217.750 16.332 199.887 16.291 C 185.917 16.259,181.742 16.297,180.735 16.465 M37.320 16.477 C 36.342 16.559,35.903 16.685,35.379 17.033 C 34.546 17.585,33.515 17.854,30.083 18.416 C 26.087 19.071,25.158 19.357,24.167 20.242 C 23.938 20.446,23.262 20.782,22.667 20.989 C 17.721 22.705,17.648 24.985,22.480 26.812 C 22.973 26.998,23.659 27.347,24.006 27.588 C 24.555 27.968,29.548 29.667,30.118 29.667 C 30.233 29.667,30.710 30.071,31.179 30.565 C 31.647 31.059,32.342 31.600,32.723 31.768 C 34.154 32.396,35.466 33.325,36.844 34.683 C 37.626 35.453,38.570 36.322,38.942 36.615 C 39.394 36.969,39.941 37.717,40.587 38.865 C 41.214 39.979,41.890 40.911,42.510 41.514 C 43.350 42.332,43.489 42.562,43.667 43.430 C 44.150 45.782,45.028 48.005,45.767 48.743 C 46.037 49.013,46.696 51.301,47.320 54.138 C 47.684 55.790,48.271 57.149,48.917 57.833 C 49.287 58.225,50.087 60.955,50.407 62.917 C 50.680 64.585,51.318 66.092,52.183 67.111 C 52.536 67.526,52.779 68.253,53.327 70.527 C 54.027 73.439,54.527 74.810,55.227 75.743 C 55.737 76.422,55.760 76.494,56.498 79.750 C 57.215 82.908,57.448 83.562,58.266 84.707 C 58.869 85.551,59.179 86.529,60.002 90.182 C 60.411 91.995,60.658 92.702,61.240 93.723 C 61.640 94.425,62.132 95.543,62.334 96.206 C 62.955 98.250,63.475 99.001,64.833 99.816 C 65.154 100.008,65.337 100.166,65.239 100.166 C 65.043 100.167,64.572 101.538,64.410 102.583 C 64.325 103.128,64.383 103.363,64.725 103.866 C 65.122 104.449,65.296 105.052,66.411 109.724 C 66.852 111.569,67.238 112.516,67.924 113.432 C 68.344 113.993,68.747 115.328,69.428 118.417 C 69.871 120.427,70.350 121.633,71.095 122.612 C 71.470 123.105,71.851 124.404,72.554 127.591 C 72.948 129.381,73.464 130.605,74.113 131.293 C 74.436 131.636,74.806 132.120,74.935 132.369 C 75.239 132.957,76.122 133.654,77.029 134.022 C 77.847 134.354,97.488 134.485,99.649 134.173 C 101.057 133.969,102.119 133.313,102.667 132.307 C 102.896 131.887,103.328 131.314,103.628 131.035 C 104.382 130.332,104.920 129.057,105.330 127.000 C 105.799 124.648,106.107 123.717,106.690 122.879 C 107.539 121.662,107.962 120.494,108.489 117.917 C 109.187 114.499,109.267 114.248,110.081 112.917 C 110.891 111.594,111.160 110.819,111.673 108.333 C 112.222 105.671,112.636 104.373,113.170 103.635 C 113.804 102.760,114.185 101.694,114.736 99.250 C 115.458 96.049,115.831 94.815,116.243 94.265 C 116.973 93.290,117.298 92.410,117.819 90.000 C 118.436 87.146,118.962 85.406,119.290 85.133 C 119.868 84.654,120.544 82.863,121.093 80.359 C 121.795 77.160,122.101 76.205,122.597 75.667 C 123.255 74.953,123.791 73.519,124.473 70.643 C 125.143 67.819,125.235 67.568,126.042 66.360 C 126.524 65.638,127.228 63.713,127.423 62.583 C 127.730 60.813,128.506 58.473,128.985 57.876 C 129.612 57.092,130.213 55.505,130.578 53.667 C 131.145 50.811,131.677 49.107,132.165 48.583 C 132.938 47.753,133.308 46.803,134.329 43.022 C 134.466 42.511,134.791 42.031,135.413 41.413 C 135.901 40.929,136.356 40.357,136.424 40.141 C 136.630 39.487,137.870 38.001,139.601 36.333 C 140.505 35.462,141.644 34.357,142.131 33.877 C 143.217 32.807,144.142 32.161,145.297 31.666 C 145.818 31.442,146.396 31.024,146.714 30.641 C 147.254 29.991,148.607 29.428,152.000 28.441 C 152.504 28.294,153.364 27.902,153.911 27.570 C 154.458 27.239,155.263 26.826,155.701 26.653 C 157.232 26.050,158.509 25.114,158.945 24.277 C 159.470 23.266,157.742 21.810,155.113 21.048 C 154.325 20.820,153.581 20.487,153.337 20.254 C 152.615 19.564,151.154 19.021,149.074 18.668 C 144.950 17.970,143.589 17.644,142.500 17.093 C 141.561 16.619,141.194 16.533,139.749 16.449 C 137.967 16.346,138.208 16.293,134.833 17.522 C 134.329 17.705,132.942 18.103,131.750 18.405 C 129.053 19.089,128.535 19.307,127.632 20.140 C 127.234 20.506,126.251 21.125,125.446 21.514 C 123.999 22.215,123.522 22.625,122.963 23.651 C 122.806 23.940,122.440 24.306,122.151 24.463 C 121.118 25.026,120.625 25.576,120.035 26.821 C 119.706 27.515,119.085 28.458,118.656 28.917 C 117.641 30.000,117.284 30.736,116.778 32.786 C 116.319 34.645,115.942 35.521,115.094 36.706 C 114.485 37.555,114.319 38.010,113.495 41.083 C 112.923 43.215,112.685 43.806,112.248 44.168 C 111.732 44.597,111.138 46.046,110.722 47.893 C 110.107 50.624,109.633 51.981,108.949 52.976 C 108.249 53.993,107.860 55.142,107.333 57.750 C 106.803 60.376,106.392 61.587,105.744 62.436 C 105.115 63.260,104.664 64.562,104.170 66.980 C 103.667 69.442,103.363 70.327,102.637 71.452 C 101.866 72.647,101.522 73.663,100.919 76.526 C 100.309 79.421,100.129 79.956,99.361 81.144 C 98.581 82.352,98.302 83.222,97.914 85.667 C 97.517 88.161,97.061 89.606,96.318 90.725 C 95.544 91.890,95.338 92.543,94.580 96.250 C 93.838 99.872,93.738 100.217,93.314 100.600 C 92.707 101.149,92.152 102.481,91.733 104.397 C 90.782 108.737,90.633 109.241,89.998 110.250 C 89.652 110.800,89.269 111.550,89.148 111.917 C 88.893 112.686,88.120 113.757,87.631 114.019 C 87.210 114.244,87.041 114.083,86.354 112.799 C 85.553 111.302,85.452 111.169,84.833 110.797 C 83.914 110.245,83.334 109.646,82.906 108.806 C 82.533 108.076,81.751 107.333,81.355 107.333 C 81.112 107.333,80.000 106.340,80.000 106.123 C 80.000 105.727,79.124 104.843,78.380 104.489 C 77.266 103.959,76.375 103.331,75.500 102.462 C 74.720 101.686,73.889 101.338,71.500 100.784 C 68.952 100.195,68.461 99.997,68.575 99.609 C 68.633 99.411,68.794 98.727,68.933 98.089 C 69.250 96.637,69.188 96.704,71.075 95.767 C 72.518 95.051,73.500 94.251,73.500 93.791 C 73.500 93.519,74.666 92.500,74.979 92.498 C 75.549 92.495,76.979 91.675,77.437 91.089 C 77.701 90.752,78.202 90.328,78.550 90.147 C 79.266 89.775,80.105 88.580,80.271 87.696 C 80.503 86.459,79.331 82.237,78.378 80.877 C 77.645 79.831,77.236 78.611,76.674 75.794 C 76.222 73.530,75.818 72.356,75.150 71.366 C 74.484 70.380,74.122 69.332,73.661 67.052 C 73.131 64.434,72.714 63.203,71.999 62.150 C 71.343 61.184,70.911 59.874,70.410 57.333 C 69.977 55.135,69.388 53.453,68.767 52.640 C 68.165 51.851,67.713 50.539,67.076 47.727 C 66.648 45.842,66.301 45.059,65.432 44.018 C 64.872 43.348,64.729 43.002,64.360 41.417 C 63.573 38.044,63.069 36.670,62.266 35.717 C 61.787 35.147,61.304 33.983,61.002 32.667 C 60.688 31.303,60.049 30.058,59.157 29.073 C 58.720 28.590,58.085 27.607,57.746 26.889 C 57.026 25.361,56.798 25.074,55.962 24.647 C 55.583 24.454,55.095 23.963,54.712 23.390 C 54.157 22.560,53.901 22.358,52.521 21.656 C 51.661 21.219,50.649 20.563,50.271 20.199 C 49.289 19.253,48.807 19.054,45.344 18.168 C 43.643 17.733,41.762 17.168,41.167 16.912 C 39.979 16.403,39.227 16.318,37.320 16.477 M334.250 17.695 C 332.120 18.308,328.772 18.831,326.967 18.832 C 323.966 18.834,320.575 19.564,318.750 20.600 C 318.383 20.808,317.258 21.255,316.250 21.594 C 314.086 22.321,313.232 22.735,312.017 23.648 C 311.523 24.020,310.455 24.667,309.645 25.085 C 308.641 25.604,307.979 26.077,307.565 26.573 C 307.214 26.993,306.460 27.573,305.786 27.942 C 305.079 28.329,304.377 28.876,304.016 29.321 C 303.686 29.726,303.067 30.388,302.640 30.790 C 302.212 31.193,301.598 32.027,301.273 32.644 C 300.693 33.748,300.515 33.971,299.228 35.199 C 298.795 35.614,298.313 36.406,297.758 37.616 C 297.304 38.606,296.769 39.642,296.569 39.917 C 295.925 40.803,295.663 41.469,294.908 44.134 C 294.471 45.676,293.892 47.277,293.499 48.035 C 292.724 49.527,292.554 50.197,291.758 54.917 C 291.216 58.129,291.167 58.704,291.158 61.917 C 291.147 65.766,291.213 65.422,289.731 69.333 L 289.258 70.583 289.201 75.628 C 289.139 81.138,289.168 81.372,290.168 83.667 C 291.003 85.579,291.167 86.685,291.167 90.398 C 291.167 93.940,291.326 95.505,292.090 99.500 C 292.621 102.274,292.928 103.362,293.319 103.863 C 293.895 104.601,294.313 105.618,294.910 107.739 C 295.576 110.103,295.795 110.609,296.574 111.583 C 296.867 111.950,297.505 113.057,297.993 114.042 C 298.576 115.223,299.218 116.218,299.875 116.959 C 300.423 117.577,301.163 118.511,301.520 119.035 C 301.877 119.558,302.488 120.207,302.876 120.477 C 303.655 121.018,304.414 121.791,304.987 122.628 C 305.192 122.927,305.808 123.476,306.355 123.848 C 306.902 124.220,307.777 124.944,308.300 125.459 C 309.040 126.187,309.730 126.628,311.417 127.449 C 312.608 128.030,313.898 128.759,314.283 129.069 C 315.030 129.672,317.991 130.739,320.333 131.249 C 321.021 131.399,322.146 131.772,322.833 132.079 C 324.798 132.957,325.145 133.009,330.000 133.172 C 332.521 133.257,335.333 133.438,336.250 133.574 C 337.644 133.782,340.810 133.824,355.631 133.828 L 373.344 133.833 374.167 133.417 C 375.308 132.838,376.225 131.898,376.095 131.439 C 376.041 131.243,375.844 130.415,375.658 129.598 C 375.225 127.693,374.534 126.318,373.293 124.890 C 372.209 123.644,371.395 122.527,371.002 121.750 C 370.864 121.475,370.519 121.135,370.237 120.993 C 369.490 120.620,368.172 119.619,367.500 118.916 C 366.465 117.832,365.604 117.532,361.000 116.653 L 357.584 116.000 347.750 116.000 C 338.610 116.000,337.793 115.976,336.167 115.667 C 335.205 115.483,333.839 115.333,333.133 115.333 C 330.641 115.333,325.405 113.661,324.101 112.448 C 323.725 112.098,323.042 111.619,322.583 111.383 C 320.445 110.282,318.957 108.947,317.419 106.750 C 316.970 106.108,316.288 105.239,315.903 104.818 C 315.115 103.957,314.837 103.467,314.429 102.218 C 314.274 101.742,313.777 100.738,313.326 99.987 C 312.469 98.562,311.668 96.745,311.665 96.222 C 311.662 95.601,310.990 92.613,310.577 91.383 C 310.213 90.296,310.163 89.912,310.235 88.735 C 310.301 87.655,310.246 87.113,309.982 86.221 C 309.797 85.595,309.388 84.108,309.075 82.917 L 308.505 80.750 308.503 76.074 C 308.500 70.697,308.743 68.766,309.694 66.633 C 310.197 65.506,310.238 65.276,310.261 63.500 C 310.293 60.886,312.044 52.968,312.676 52.577 C 312.992 52.382,313.993 50.636,314.392 49.583 C 315.886 45.647,322.107 39.428,325.750 38.230 C 326.208 38.079,327.146 37.671,327.833 37.324 C 329.220 36.624,329.333 36.589,333.000 35.732 L 335.583 35.129 351.200 35.156 C 368.375 35.187,367.248 35.250,368.389 34.189 C 369.423 33.229,369.532 32.436,369.508 26.083 C 369.483 19.723,369.049 18.475,366.632 17.824 C 365.837 17.610,334.973 17.487,334.250 17.695 M365.223 18.328 C 366.844 18.498,367.406 18.796,368.287 19.950 L 368.750 20.557 368.854 25.403 C 368.994 31.884,368.689 33.457,367.133 34.266 C 366.756 34.462,364.233 34.500,351.629 34.500 C 335.493 34.500,335.507 34.499,331.196 35.410 C 328.943 35.885,328.327 36.081,327.613 36.548 C 327.138 36.858,326.225 37.317,325.583 37.568 C 322.618 38.727,320.527 40.404,316.519 44.834 C 315.331 46.147,314.973 46.692,314.134 48.457 C 313.592 49.600,312.894 50.904,312.585 51.354 C 311.894 52.359,311.483 53.437,311.006 55.500 C 310.804 56.371,310.331 58.133,309.955 59.417 C 309.394 61.326,309.249 62.113,309.157 63.750 C 309.094 64.863,308.921 66.120,308.767 66.583 C 307.539 70.272,307.790 84.417,309.122 86.561 C 309.186 86.665,309.287 87.650,309.346 88.750 C 309.432 90.360,309.542 90.977,309.908 91.917 C 310.158 92.558,310.614 94.184,310.922 95.530 C 311.522 98.156,311.949 99.337,312.705 100.459 C 312.968 100.848,313.547 101.936,313.992 102.875 C 314.835 104.656,314.959 104.848,316.566 106.856 C 318.314 109.040,319.689 110.334,321.583 111.577 C 322.592 112.238,323.524 112.910,323.656 113.069 C 323.960 113.437,325.150 114.035,326.333 114.414 C 326.837 114.576,327.587 114.840,328.000 115.002 C 331.879 116.528,333.547 116.673,347.185 116.669 C 361.106 116.666,363.957 117.106,367.333 119.778 C 368.021 120.322,368.934 121.006,369.362 121.299 C 369.864 121.642,370.532 122.393,371.244 123.414 C 371.850 124.284,372.704 125.404,373.141 125.903 C 374.381 127.321,374.765 128.179,374.993 130.050 C 375.220 131.909,375.212 131.930,374.051 132.611 L 373.325 133.037 355.454 133.011 C 341.494 132.990,336.963 132.932,334.750 132.744 C 333.192 132.612,330.994 132.503,329.865 132.502 C 327.228 132.499,325.758 132.265,324.000 131.569 C 323.221 131.260,321.620 130.780,320.442 130.502 C 317.496 129.807,315.899 129.245,314.963 128.573 C 314.526 128.258,313.239 127.555,312.104 127.010 C 310.743 126.356,309.708 125.726,309.062 125.157 C 308.524 124.683,307.550 123.934,306.898 123.492 C 306.200 123.018,305.463 122.340,305.106 121.842 C 304.772 121.377,304.084 120.679,303.578 120.290 C 303.042 119.878,302.274 119.028,301.736 118.250 C 301.229 117.517,300.448 116.476,300.000 115.937 C 299.552 115.398,298.773 114.123,298.270 113.103 C 297.766 112.084,297.125 110.950,296.845 110.583 C 296.504 110.137,296.054 109.038,295.484 107.260 C 295.016 105.799,294.348 103.958,294.001 103.168 C 292.593 99.969,291.992 96.502,291.835 90.667 L 291.717 86.250 291.025 83.600 L 290.333 80.950 290.333 76.067 L 290.333 71.184 291.025 68.467 C 291.715 65.757,291.717 65.740,291.831 61.667 C 291.982 56.203,292.616 52.446,293.947 49.129 C 294.267 48.329,294.888 46.438,295.326 44.926 C 295.900 42.944,296.312 41.863,296.803 41.047 C 297.177 40.425,297.892 39.054,298.390 38.000 C 299.060 36.582,299.498 35.888,300.075 35.333 C 300.504 34.921,301.127 34.133,301.461 33.583 C 302.292 32.211,305.365 28.960,306.325 28.438 C 306.751 28.206,307.471 27.636,307.925 27.172 C 308.447 26.638,309.301 26.043,310.250 25.552 C 311.075 25.126,312.425 24.317,313.250 23.755 C 314.499 22.905,315.126 22.614,317.000 22.015 C 318.237 21.619,319.919 21.036,320.736 20.719 C 323.062 19.816,324.526 19.505,326.464 19.503 C 328.080 19.500,333.686 18.785,334.075 18.531 C 334.171 18.468,340.250 18.378,347.583 18.330 C 354.917 18.282,361.554 18.227,362.333 18.208 C 363.113 18.188,364.413 18.242,365.223 18.328 M41.343 18.988 C 44.592 19.589,46.235 20.015,47.038 20.467 C 52.453 23.509,52.753 23.700,53.374 24.510 C 53.717 24.957,54.392 25.633,54.874 26.010 C 55.609 26.587,55.960 27.078,57.051 29.056 C 57.767 30.354,58.489 31.566,58.655 31.749 C 59.129 32.272,59.310 32.700,60.192 35.395 C 60.646 36.782,61.268 38.329,61.574 38.833 C 62.137 39.762,62.483 40.684,63.582 44.194 C 63.916 45.264,64.421 46.501,64.703 46.944 C 65.426 48.080,65.566 48.462,66.427 51.614 C 66.945 53.513,67.457 54.954,68.013 56.083 C 68.581 57.236,69.016 58.470,69.422 60.083 C 70.196 63.155,70.427 63.845,71.180 65.333 C 71.580 66.122,72.155 67.831,72.741 69.965 C 73.251 71.825,73.902 73.808,74.186 74.373 C 74.884 75.755,75.081 76.332,75.846 79.250 C 76.312 81.027,76.762 82.280,77.403 83.583 C 77.899 84.592,78.436 85.843,78.596 86.365 L 78.888 87.314 78.446 87.893 C 78.201 88.214,77.555 88.696,76.995 88.976 C 75.651 89.648,72.952 91.717,72.101 92.729 C 71.298 93.683,70.025 94.582,68.171 95.508 C 67.437 95.874,66.447 96.520,65.971 96.943 L 65.105 97.712 64.729 97.240 C 64.356 96.773,63.626 94.844,63.092 92.917 C 62.940 92.367,62.521 91.317,62.162 90.583 C 61.803 89.850,61.244 88.251,60.921 87.029 C 60.127 84.031,59.588 82.466,58.931 81.260 C 58.416 80.316,58.165 79.529,57.090 75.500 C 56.858 74.629,56.333 73.264,55.924 72.467 C 55.486 71.615,54.898 70.036,54.496 68.634 C 53.656 65.699,53.305 64.723,52.588 63.328 C 52.280 62.729,51.684 60.987,51.264 59.458 C 50.414 56.366,50.075 55.424,49.347 54.131 C 49.052 53.606,48.537 52.070,48.076 50.333 C 47.474 48.068,47.066 46.933,46.252 45.250 C 45.675 44.058,45.006 42.593,44.765 41.994 C 44.507 41.353,43.852 40.306,43.173 39.448 C 42.538 38.646,41.792 37.593,41.514 37.108 C 40.931 36.089,40.555 35.670,39.409 34.762 C 38.955 34.402,38.268 33.718,37.884 33.241 C 37.371 32.606,36.714 32.099,35.430 31.349 C 34.465 30.785,33.330 30.024,32.908 29.659 C 32.016 28.887,31.620 28.668,30.062 28.081 C 29.432 27.845,28.375 27.354,27.714 26.991 C 27.052 26.628,25.814 26.100,24.964 25.818 C 23.452 25.318,22.460 24.800,21.711 24.119 L 21.339 23.781 21.878 23.377 C 22.571 22.858,23.778 22.248,24.417 22.094 C 24.692 22.028,25.912 21.566,27.130 21.067 C 28.860 20.358,29.786 20.088,31.380 19.827 C 32.500 19.643,34.092 19.346,34.917 19.167 C 37.488 18.609,39.053 18.565,41.343 18.988 M142.169 18.997 C 142.488 19.084,143.994 19.374,145.514 19.642 C 147.815 20.047,148.614 20.270,150.277 20.970 C 151.377 21.432,152.767 21.969,153.366 22.163 C 154.509 22.532,156.186 23.453,156.286 23.767 C 156.387 24.084,154.632 25.152,153.031 25.747 C 152.187 26.061,150.879 26.650,150.123 27.055 C 149.368 27.461,148.203 27.997,147.535 28.247 C 146.866 28.497,145.980 28.937,145.565 29.226 C 145.149 29.514,143.947 30.343,142.893 31.068 C 141.789 31.828,140.623 32.793,140.144 33.344 C 139.685 33.871,138.864 34.653,138.318 35.082 C 137.772 35.511,136.905 36.436,136.392 37.139 C 135.878 37.842,135.210 38.679,134.906 39.000 C 134.093 39.859,133.238 41.371,132.750 42.812 C 132.513 43.511,132.140 44.421,131.920 44.833 C 130.739 47.056,130.405 47.900,129.724 50.374 C 129.260 52.061,128.676 53.712,128.178 54.750 C 127.738 55.667,127.256 56.867,127.109 57.417 C 126.210 60.760,125.597 62.655,125.249 63.167 C 124.638 64.064,124.263 65.063,123.682 67.333 C 122.890 70.426,122.722 70.913,121.749 72.917 C 121.098 74.258,120.676 75.466,120.177 77.417 C 119.726 79.179,119.275 80.511,118.846 81.346 C 118.243 82.517,117.736 84.015,116.597 87.982 C 116.350 88.842,115.900 90.042,115.597 90.648 C 114.932 91.979,114.666 92.784,113.991 95.496 C 113.353 98.062,112.920 99.337,112.322 100.417 C 111.824 101.315,111.225 103.192,110.673 105.583 C 110.189 107.675,109.705 109.083,109.065 110.250 C 108.542 111.206,108.350 111.803,107.169 116.167 C 106.883 117.221,106.356 118.683,105.997 119.417 C 105.638 120.150,105.073 121.725,104.741 122.917 C 104.410 124.108,103.983 125.629,103.794 126.296 C 103.498 127.335,102.652 128.968,101.054 131.583 C 100.371 132.700,100.762 132.666,88.682 132.666 L 77.781 132.667 77.214 132.234 C 76.901 131.995,76.571 131.604,76.480 131.364 C 76.389 131.124,75.908 130.248,75.412 129.417 C 74.327 127.598,74.160 127.151,73.325 123.833 C 72.890 122.107,72.432 120.753,71.943 119.750 C 70.969 117.752,70.949 117.693,70.083 114.333 C 69.571 112.344,69.099 110.938,68.599 109.913 C 67.731 108.132,67.352 107.014,66.832 104.706 L 66.446 102.995 66.848 102.565 C 67.891 101.448,67.964 101.432,69.871 101.931 C 71.626 102.390,72.413 102.718,73.586 103.481 C 74.485 104.066,74.689 104.189,76.333 105.144 C 77.112 105.596,77.842 106.068,77.954 106.191 C 78.411 106.695,80.341 108.627,81.022 109.262 C 81.422 109.636,82.041 110.297,82.398 110.733 C 82.754 111.169,83.341 111.721,83.702 111.960 C 84.111 112.230,84.520 112.713,84.785 113.239 C 85.325 114.308,86.773 116.576,87.076 116.828 C 87.406 117.101,88.827 116.348,89.778 115.398 C 90.813 114.362,91.243 113.316,92.190 109.527 C 93.089 105.929,93.440 104.755,93.769 104.248 C 94.300 103.429,95.037 101.277,95.668 98.704 C 96.127 96.828,96.601 95.372,97.115 94.250 C 97.662 93.057,98.135 91.564,98.777 89.000 C 99.440 86.355,99.869 85.013,100.413 83.876 C 100.884 82.893,101.367 81.473,101.746 79.959 C 102.518 76.871,102.749 76.179,103.524 74.627 C 103.879 73.917,104.398 72.492,104.678 71.460 C 105.851 67.142,106.037 66.573,106.752 65.113 C 107.271 64.053,107.732 62.689,108.254 60.667 C 108.775 58.649,109.261 57.211,109.830 56.000 C 110.282 55.038,110.876 53.425,111.150 52.417 C 111.924 49.565,112.445 48.094,113.000 47.192 C 113.281 46.736,113.983 44.911,114.560 43.137 C 115.241 41.041,115.839 39.529,116.268 38.819 C 116.633 38.212,117.206 36.842,117.555 35.738 C 118.484 32.798,118.642 32.406,119.263 31.504 C 119.575 31.051,120.323 29.743,120.926 28.597 C 121.764 27.004,122.156 26.431,122.592 26.161 C 122.905 25.968,123.669 25.259,124.289 24.588 C 125.294 23.499,125.644 23.252,127.500 22.327 C 128.646 21.756,129.808 21.122,130.083 20.919 C 131.140 20.138,132.443 19.733,136.500 18.925 C 137.839 18.658,141.075 18.699,142.169 18.997 M220.656 19.600 C 223.992 20.238,224.119 20.282,225.036 21.102 C 225.376 21.406,226.023 21.841,226.472 22.069 C 227.501 22.591,228.058 23.248,228.421 24.370 C 228.578 24.854,229.066 25.925,229.506 26.750 C 231.285 30.090,231.165 26.155,231.167 81.181 L 231.169 129.052 230.818 130.353 C 230.625 131.068,230.381 131.723,230.275 131.809 C 229.349 132.562,217.909 132.894,216.572 132.206 C 215.240 131.521,214.400 129.397,214.558 127.113 C 214.616 126.272,214.668 105.533,214.673 81.026 L 214.682 36.469 214.133 35.734 C 213.759 35.233,213.242 34.827,212.517 34.464 L 211.450 33.930 196.767 33.973 C 182.181 34.016,179.705 33.944,179.220 33.458 C 178.410 32.647,178.098 21.273,178.852 20.053 C 179.557 18.913,179.603 18.910,199.779 18.965 L 217.583 19.013 220.656 19.600 M269.952 19.092 C 272.964 19.298,273.484 20.436,273.558 26.981 L 273.596 30.379 272.995 31.866 C 272.045 34.218,273.847 33.979,257.011 33.984 C 242.996 33.989,242.554 33.979,241.559 33.653 C 239.676 33.036,238.882 31.768,238.410 28.621 C 238.124 26.716,237.682 25.606,236.769 24.500 C 236.429 24.087,235.904 23.375,235.602 22.917 C 235.114 22.175,234.179 21.309,233.367 20.846 C 232.753 20.497,233.796 19.600,235.293 19.190 C 236.325 18.907,266.029 18.823,269.952 19.092 M361.637 61.675 C 359.775 62.016,358.937 62.633,358.108 64.274 C 357.824 64.836,357.651 105.687,357.922 108.167 C 358.148 110.228,359.162 111.255,361.476 111.767 C 363.314 112.173,363.941 112.424,364.662 113.041 C 365.014 113.342,365.590 113.689,365.943 113.813 C 366.754 114.097,367.937 114.846,368.583 115.486 C 368.858 115.758,369.939 116.848,370.984 117.907 C 372.231 119.171,373.004 119.831,373.234 119.828 C 373.885 119.817,376.213 119.354,376.361 119.206 C 376.790 118.777,376.838 115.944,376.843 90.845 L 376.847 64.606 376.240 63.725 C 375.726 62.978,374.958 62.336,373.667 61.574 C 373.206 61.301,363.217 61.385,361.637 61.675 M373.946 62.695 C 374.311 62.936,374.929 63.498,375.318 63.942 L 376.027 64.750 376.022 90.800 L 376.017 116.849 375.650 117.444 C 375.232 118.120,374.215 118.657,373.343 118.663 C 372.829 118.666,372.575 118.469,370.926 116.780 C 369.069 114.878,368.209 114.190,366.833 113.506 C 366.421 113.300,365.692 112.867,365.214 112.543 C 364.642 112.154,363.620 111.734,362.218 111.311 C 359.646 110.535,359.109 110.116,358.830 108.667 C 358.510 107.000,358.554 65.033,358.877 64.417 C 359.862 62.535,361.117 62.249,368.376 62.253 L 373.283 62.255 373.946 62.695 M77.138 95.338 C 76.550 95.649,75.833 96.453,75.833 96.803 C 75.833 97.102,77.368 98.333,77.741 98.333 C 78.190 98.333,79.585 97.464,79.810 97.044 C 80.031 96.631,79.377 95.781,78.491 95.329 C 77.732 94.941,77.891 94.940,77.138 95.338 " stroke="none" fill="#c8c89a" fill-rule="evenodd"></path></g></svg>